<?xml version="1.0" encoding="utf-8" standalone="no"?>
<!DOCTYPE svg PUBLIC "-//W3C//DTD SVG 1.1//EN"
  "http://www.w3.org/Graphics/SVG/1.1/DTD/svg11.dtd">
<!-- Created with matplotlib (https://matplotlib.org/) -->
<svg height="684.602812pt" version="1.1" viewBox="0 0 938.635875 684.602812" width="938.635875pt" xmlns="http://www.w3.org/2000/svg" xmlns:xlink="http://www.w3.org/1999/xlink">
 <defs>
  <style type="text/css">
*{stroke-linecap:butt;stroke-linejoin:round;}
  </style>
 </defs>
 <g id="figure_1">
  <g id="patch_1">
   <path d="M 0 684.602812 
L 938.635875 684.602812 
L 938.635875 0 
L 0 0 
z
" style="fill:#ffffff;"/>
  </g>
  <g id="axes_1">
   <g id="patch_2">
    <path d="M 53.328125 563.9575 
L 931.435875 563.9575 
L 931.435875 22.318125 
L 53.328125 22.318125 
z
" style="fill:#ffffff;"/>
   </g>
   <g id="patch_3">
    <path clip-path="url(#peaa1e6db7b)" d="M 93.242114 563.9575 
L 150.262097 563.9575 
L 150.262097 563.9575 
L 93.242114 563.9575 
z
" style="fill:#bd2a47;stroke:#ffffff;stroke-linejoin:miter;stroke-width:0.1;"/>
   </g>
   <g id="patch_4">
    <path clip-path="url(#peaa1e6db7b)" d="M 150.262097 563.9575 
L 207.282081 563.9575 
L 207.282081 563.845213 
L 150.262097 563.845213 
z
" style="fill:#bd2a47;stroke:#ffffff;stroke-linejoin:miter;stroke-width:0.1;"/>
   </g>
   <g id="patch_5">
    <path clip-path="url(#peaa1e6db7b)" d="M 207.282081 563.9575 
L 264.302065 563.9575 
L 264.302065 563.901356 
L 207.282081 563.901356 
z
" style="fill:#bd2a47;stroke:#ffffff;stroke-linejoin:miter;stroke-width:0.1;"/>
   </g>
   <g id="patch_6">
    <path clip-path="url(#peaa1e6db7b)" d="M 264.302065 563.9575 
L 321.322049 563.9575 
L 321.322049 541.72465 
L 264.302065 541.72465 
z
" style="fill:#bd2a47;stroke:#ffffff;stroke-linejoin:miter;stroke-width:0.1;"/>
   </g>
   <g id="patch_7">
    <path clip-path="url(#peaa1e6db7b)" d="M 321.322049 563.9575 
L 378.342032 563.9575 
L 378.342032 538.468324 
L 321.322049 538.468324 
z
" style="fill:#bd2a47;stroke:#ffffff;stroke-linejoin:miter;stroke-width:0.1;"/>
   </g>
   <g id="patch_8">
    <path clip-path="url(#peaa1e6db7b)" d="M 378.342032 563.9575 
L 435.362016 563.9575 
L 435.362016 541.836938 
L 378.342032 541.836938 
z
" style="fill:#bd2a47;stroke:#ffffff;stroke-linejoin:miter;stroke-width:0.1;"/>
   </g>
   <g id="patch_9">
    <path clip-path="url(#peaa1e6db7b)" d="M 435.362016 563.9575 
L 492.382 563.9575 
L 492.382 538.468324 
L 435.362016 538.468324 
z
" style="fill:#bd2a47;stroke:#ffffff;stroke-linejoin:miter;stroke-width:0.1;"/>
   </g>
   <g id="patch_10">
    <path clip-path="url(#peaa1e6db7b)" d="M 492.382 563.9575 
L 549.401984 563.9575 
L 549.401984 541.72465 
L 492.382 541.72465 
z
" style="fill:#bd2a47;stroke:#ffffff;stroke-linejoin:miter;stroke-width:0.1;"/>
   </g>
   <g id="patch_11">
    <path clip-path="url(#peaa1e6db7b)" d="M 549.401984 563.9575 
L 606.421968 563.9575 
L 606.421968 541.780794 
L 549.401984 541.780794 
z
" style="fill:#bd2a47;stroke:#ffffff;stroke-linejoin:miter;stroke-width:0.1;"/>
   </g>
   <g id="patch_12">
    <path clip-path="url(#peaa1e6db7b)" d="M 606.421968 563.9575 
L 663.441951 563.9575 
L 663.441951 541.780794 
L 606.421968 541.780794 
z
" style="fill:#bd2a47;stroke:#ffffff;stroke-linejoin:miter;stroke-width:0.1;"/>
   </g>
   <g id="patch_13">
    <path clip-path="url(#peaa1e6db7b)" d="M 663.441951 563.9575 
L 720.461935 563.9575 
L 720.461935 541.72465 
L 663.441951 541.72465 
z
" style="fill:#bd2a47;stroke:#ffffff;stroke-linejoin:miter;stroke-width:0.1;"/>
   </g>
   <g id="patch_14">
    <path clip-path="url(#peaa1e6db7b)" d="M 720.461935 563.9575 
L 777.481919 563.9575 
L 777.481919 48.110476 
L 720.461935 48.110476 
z
" style="fill:#bd2a47;stroke:#ffffff;stroke-linejoin:miter;stroke-width:0.1;"/>
   </g>
   <g id="patch_15">
    <path clip-path="url(#peaa1e6db7b)" d="M 777.481919 563.9575 
L 834.501903 563.9575 
L 834.501903 563.901356 
L 777.481919 563.901356 
z
" style="fill:#bd2a47;stroke:#ffffff;stroke-linejoin:miter;stroke-width:0.1;"/>
   </g>
   <g id="patch_16">
    <path clip-path="url(#peaa1e6db7b)" d="M 834.501903 563.9575 
L 891.521886 563.9575 
L 891.521886 541.780794 
L 834.501903 541.780794 
z
" style="fill:#bd2a47;stroke:#ffffff;stroke-linejoin:miter;stroke-width:0.1;"/>
   </g>
   <g id="matplotlib.axis_1">
    <g id="xtick_1">
     <g id="line2d_1">
      <defs>
       <path d="M 0 0 
L 0 3.5 
" id="m5b36c08369" style="stroke:#000000;stroke-width:0.8;"/>
      </defs>
      <g>
       <use style="stroke:#000000;stroke-width:0.8;" x="121.752106" xlink:href="#m5b36c08369" y="563.9575"/>
      </g>
     </g>
     <g id="text_1">
      <!-- KIR3DS1*0130101 -->
      <defs>
       <path d="M 9.8125 72.90625 
L 19.671875 72.90625 
L 19.671875 42.09375 
L 52.390625 72.90625 
L 65.09375 72.90625 
L 28.90625 38.921875 
L 67.671875 0 
L 54.6875 0 
L 19.671875 35.109375 
L 19.671875 0 
L 9.8125 0 
z
" id="DejaVuSans-75"/>
       <path d="M 9.8125 72.90625 
L 19.671875 72.90625 
L 19.671875 0 
L 9.8125 0 
z
" id="DejaVuSans-73"/>
       <path d="M 44.390625 34.1875 
Q 47.5625 33.109375 50.5625 29.59375 
Q 53.5625 26.078125 56.59375 19.921875 
L 66.609375 0 
L 56 0 
L 46.6875 18.703125 
Q 43.0625 26.03125 39.671875 28.421875 
Q 36.28125 30.8125 30.421875 30.8125 
L 19.671875 30.8125 
L 19.671875 0 
L 9.8125 0 
L 9.8125 72.90625 
L 32.078125 72.90625 
Q 44.578125 72.90625 50.734375 67.671875 
Q 56.890625 62.453125 56.890625 51.90625 
Q 56.890625 45.015625 53.6875 40.46875 
Q 50.484375 35.9375 44.390625 34.1875 
z
M 19.671875 64.796875 
L 19.671875 38.921875 
L 32.078125 38.921875 
Q 39.203125 38.921875 42.84375 42.21875 
Q 46.484375 45.515625 46.484375 51.90625 
Q 46.484375 58.296875 42.84375 61.546875 
Q 39.203125 64.796875 32.078125 64.796875 
z
" id="DejaVuSans-82"/>
       <path d="M 40.578125 39.3125 
Q 47.65625 37.796875 51.625 33 
Q 55.609375 28.21875 55.609375 21.1875 
Q 55.609375 10.40625 48.1875 4.484375 
Q 40.765625 -1.421875 27.09375 -1.421875 
Q 22.515625 -1.421875 17.65625 -0.515625 
Q 12.796875 0.390625 7.625 2.203125 
L 7.625 11.71875 
Q 11.71875 9.328125 16.59375 8.109375 
Q 21.484375 6.890625 26.8125 6.890625 
Q 36.078125 6.890625 40.9375 10.546875 
Q 45.796875 14.203125 45.796875 21.1875 
Q 45.796875 27.640625 41.28125 31.265625 
Q 36.765625 34.90625 28.71875 34.90625 
L 20.21875 34.90625 
L 20.21875 43.015625 
L 29.109375 43.015625 
Q 36.375 43.015625 40.234375 45.921875 
Q 44.09375 48.828125 44.09375 54.296875 
Q 44.09375 59.90625 40.109375 62.90625 
Q 36.140625 65.921875 28.71875 65.921875 
Q 24.65625 65.921875 20.015625 65.03125 
Q 15.375 64.15625 9.8125 62.3125 
L 9.8125 71.09375 
Q 15.4375 72.65625 20.34375 73.4375 
Q 25.25 74.21875 29.59375 74.21875 
Q 40.828125 74.21875 47.359375 69.109375 
Q 53.90625 64.015625 53.90625 55.328125 
Q 53.90625 49.265625 50.4375 45.09375 
Q 46.96875 40.921875 40.578125 39.3125 
z
" id="DejaVuSans-51"/>
       <path d="M 19.671875 64.796875 
L 19.671875 8.109375 
L 31.59375 8.109375 
Q 46.6875 8.109375 53.6875 14.9375 
Q 60.6875 21.78125 60.6875 36.53125 
Q 60.6875 51.171875 53.6875 57.984375 
Q 46.6875 64.796875 31.59375 64.796875 
z
M 9.8125 72.90625 
L 30.078125 72.90625 
Q 51.265625 72.90625 61.171875 64.09375 
Q 71.09375 55.28125 71.09375 36.53125 
Q 71.09375 17.671875 61.125 8.828125 
Q 51.171875 0 30.078125 0 
L 9.8125 0 
z
" id="DejaVuSans-68"/>
       <path d="M 53.515625 70.515625 
L 53.515625 60.890625 
Q 47.90625 63.578125 42.921875 64.890625 
Q 37.9375 66.21875 33.296875 66.21875 
Q 25.25 66.21875 20.875 63.09375 
Q 16.5 59.96875 16.5 54.203125 
Q 16.5 49.359375 19.40625 46.890625 
Q 22.3125 44.4375 30.421875 42.921875 
L 36.375 41.703125 
Q 47.40625 39.59375 52.65625 34.296875 
Q 57.90625 29 57.90625 20.125 
Q 57.90625 9.515625 50.796875 4.046875 
Q 43.703125 -1.421875 29.984375 -1.421875 
Q 24.8125 -1.421875 18.96875 -0.25 
Q 13.140625 0.921875 6.890625 3.21875 
L 6.890625 13.375 
Q 12.890625 10.015625 18.65625 8.296875 
Q 24.421875 6.59375 29.984375 6.59375 
Q 38.421875 6.59375 43.015625 9.90625 
Q 47.609375 13.234375 47.609375 19.390625 
Q 47.609375 24.75 44.3125 27.78125 
Q 41.015625 30.8125 33.5 32.328125 
L 27.484375 33.5 
Q 16.453125 35.6875 11.515625 40.375 
Q 6.59375 45.0625 6.59375 53.421875 
Q 6.59375 63.09375 13.40625 68.65625 
Q 20.21875 74.21875 32.171875 74.21875 
Q 37.3125 74.21875 42.625 73.28125 
Q 47.953125 72.359375 53.515625 70.515625 
z
" id="DejaVuSans-83"/>
       <path d="M 12.40625 8.296875 
L 28.515625 8.296875 
L 28.515625 63.921875 
L 10.984375 60.40625 
L 10.984375 69.390625 
L 28.421875 72.90625 
L 38.28125 72.90625 
L 38.28125 8.296875 
L 54.390625 8.296875 
L 54.390625 0 
L 12.40625 0 
z
" id="DejaVuSans-49"/>
       <path d="M 47.015625 60.890625 
L 29.5 51.421875 
L 47.015625 41.890625 
L 44.1875 37.109375 
L 27.78125 47.015625 
L 27.78125 28.609375 
L 22.21875 28.609375 
L 22.21875 47.015625 
L 5.8125 37.109375 
L 2.984375 41.890625 
L 20.515625 51.421875 
L 2.984375 60.890625 
L 5.8125 65.71875 
L 22.21875 55.8125 
L 22.21875 74.21875 
L 27.78125 74.21875 
L 27.78125 55.8125 
L 44.1875 65.71875 
z
" id="DejaVuSans-42"/>
       <path d="M 31.78125 66.40625 
Q 24.171875 66.40625 20.328125 58.90625 
Q 16.5 51.421875 16.5 36.375 
Q 16.5 21.390625 20.328125 13.890625 
Q 24.171875 6.390625 31.78125 6.390625 
Q 39.453125 6.390625 43.28125 13.890625 
Q 47.125 21.390625 47.125 36.375 
Q 47.125 51.421875 43.28125 58.90625 
Q 39.453125 66.40625 31.78125 66.40625 
z
M 31.78125 74.21875 
Q 44.046875 74.21875 50.515625 64.515625 
Q 56.984375 54.828125 56.984375 36.375 
Q 56.984375 17.96875 50.515625 8.265625 
Q 44.046875 -1.421875 31.78125 -1.421875 
Q 19.53125 -1.421875 13.0625 8.265625 
Q 6.59375 17.96875 6.59375 36.375 
Q 6.59375 54.828125 13.0625 64.515625 
Q 19.53125 74.21875 31.78125 74.21875 
z
" id="DejaVuSans-48"/>
      </defs>
      <g transform="translate(124.511481 663.724687)rotate(-90)scale(0.1 -0.1)">
       <use xlink:href="#DejaVuSans-75"/>
       <use x="65.576172" xlink:href="#DejaVuSans-73"/>
       <use x="95.068359" xlink:href="#DejaVuSans-82"/>
       <use x="164.550781" xlink:href="#DejaVuSans-51"/>
       <use x="228.173828" xlink:href="#DejaVuSans-68"/>
       <use x="305.175781" xlink:href="#DejaVuSans-83"/>
       <use x="368.652344" xlink:href="#DejaVuSans-49"/>
       <use x="432.275391" xlink:href="#DejaVuSans-42"/>
       <use x="482.275391" xlink:href="#DejaVuSans-48"/>
       <use x="545.898438" xlink:href="#DejaVuSans-49"/>
       <use x="609.521484" xlink:href="#DejaVuSans-51"/>
       <use x="673.144531" xlink:href="#DejaVuSans-48"/>
       <use x="736.767578" xlink:href="#DejaVuSans-49"/>
       <use x="800.390625" xlink:href="#DejaVuSans-48"/>
       <use x="864.013672" xlink:href="#DejaVuSans-49"/>
      </g>
     </g>
    </g>
    <g id="xtick_2">
     <g id="line2d_2">
      <g>
       <use style="stroke:#000000;stroke-width:0.8;" x="178.772089" xlink:href="#m5b36c08369" y="563.9575"/>
      </g>
     </g>
     <g id="text_2">
      <!-- KIR3DS1*0130102 -->
      <defs>
       <path d="M 19.1875 8.296875 
L 53.609375 8.296875 
L 53.609375 0 
L 7.328125 0 
L 7.328125 8.296875 
Q 12.9375 14.109375 22.625 23.890625 
Q 32.328125 33.6875 34.8125 36.53125 
Q 39.546875 41.84375 41.421875 45.53125 
Q 43.3125 49.21875 43.3125 52.78125 
Q 43.3125 58.59375 39.234375 62.25 
Q 35.15625 65.921875 28.609375 65.921875 
Q 23.96875 65.921875 18.8125 64.3125 
Q 13.671875 62.703125 7.8125 59.421875 
L 7.8125 69.390625 
Q 13.765625 71.78125 18.9375 73 
Q 24.125 74.21875 28.421875 74.21875 
Q 39.75 74.21875 46.484375 68.546875 
Q 53.21875 62.890625 53.21875 53.421875 
Q 53.21875 48.921875 51.53125 44.890625 
Q 49.859375 40.875 45.40625 35.40625 
Q 44.1875 33.984375 37.640625 27.21875 
Q 31.109375 20.453125 19.1875 8.296875 
z
" id="DejaVuSans-50"/>
      </defs>
      <g transform="translate(181.531464 663.724687)rotate(-90)scale(0.1 -0.1)">
       <use xlink:href="#DejaVuSans-75"/>
       <use x="65.576172" xlink:href="#DejaVuSans-73"/>
       <use x="95.068359" xlink:href="#DejaVuSans-82"/>
       <use x="164.550781" xlink:href="#DejaVuSans-51"/>
       <use x="228.173828" xlink:href="#DejaVuSans-68"/>
       <use x="305.175781" xlink:href="#DejaVuSans-83"/>
       <use x="368.652344" xlink:href="#DejaVuSans-49"/>
       <use x="432.275391" xlink:href="#DejaVuSans-42"/>
       <use x="482.275391" xlink:href="#DejaVuSans-48"/>
       <use x="545.898438" xlink:href="#DejaVuSans-49"/>
       <use x="609.521484" xlink:href="#DejaVuSans-51"/>
       <use x="673.144531" xlink:href="#DejaVuSans-48"/>
       <use x="736.767578" xlink:href="#DejaVuSans-49"/>
       <use x="800.390625" xlink:href="#DejaVuSans-48"/>
       <use x="864.013672" xlink:href="#DejaVuSans-50"/>
      </g>
     </g>
    </g>
    <g id="xtick_3">
     <g id="line2d_3">
      <g>
       <use style="stroke:#000000;stroke-width:0.8;" x="235.792073" xlink:href="#m5b36c08369" y="563.9575"/>
      </g>
     </g>
     <g id="text_3">
      <!-- KIR3DS1*0130103 -->
      <g transform="translate(238.551448 663.724687)rotate(-90)scale(0.1 -0.1)">
       <use xlink:href="#DejaVuSans-75"/>
       <use x="65.576172" xlink:href="#DejaVuSans-73"/>
       <use x="95.068359" xlink:href="#DejaVuSans-82"/>
       <use x="164.550781" xlink:href="#DejaVuSans-51"/>
       <use x="228.173828" xlink:href="#DejaVuSans-68"/>
       <use x="305.175781" xlink:href="#DejaVuSans-83"/>
       <use x="368.652344" xlink:href="#DejaVuSans-49"/>
       <use x="432.275391" xlink:href="#DejaVuSans-42"/>
       <use x="482.275391" xlink:href="#DejaVuSans-48"/>
       <use x="545.898438" xlink:href="#DejaVuSans-49"/>
       <use x="609.521484" xlink:href="#DejaVuSans-51"/>
       <use x="673.144531" xlink:href="#DejaVuSans-48"/>
       <use x="736.767578" xlink:href="#DejaVuSans-49"/>
       <use x="800.390625" xlink:href="#DejaVuSans-48"/>
       <use x="864.013672" xlink:href="#DejaVuSans-51"/>
      </g>
     </g>
    </g>
    <g id="xtick_4">
     <g id="line2d_4">
      <g>
       <use style="stroke:#000000;stroke-width:0.8;" x="292.812057" xlink:href="#m5b36c08369" y="563.9575"/>
      </g>
     </g>
     <g id="text_4">
      <!-- KIR3DS1*0130104 -->
      <defs>
       <path d="M 37.796875 64.3125 
L 12.890625 25.390625 
L 37.796875 25.390625 
z
M 35.203125 72.90625 
L 47.609375 72.90625 
L 47.609375 25.390625 
L 58.015625 25.390625 
L 58.015625 17.1875 
L 47.609375 17.1875 
L 47.609375 0 
L 37.796875 0 
L 37.796875 17.1875 
L 4.890625 17.1875 
L 4.890625 26.703125 
z
" id="DejaVuSans-52"/>
      </defs>
      <g transform="translate(295.571432 663.724687)rotate(-90)scale(0.1 -0.1)">
       <use xlink:href="#DejaVuSans-75"/>
       <use x="65.576172" xlink:href="#DejaVuSans-73"/>
       <use x="95.068359" xlink:href="#DejaVuSans-82"/>
       <use x="164.550781" xlink:href="#DejaVuSans-51"/>
       <use x="228.173828" xlink:href="#DejaVuSans-68"/>
       <use x="305.175781" xlink:href="#DejaVuSans-83"/>
       <use x="368.652344" xlink:href="#DejaVuSans-49"/>
       <use x="432.275391" xlink:href="#DejaVuSans-42"/>
       <use x="482.275391" xlink:href="#DejaVuSans-48"/>
       <use x="545.898438" xlink:href="#DejaVuSans-49"/>
       <use x="609.521484" xlink:href="#DejaVuSans-51"/>
       <use x="673.144531" xlink:href="#DejaVuSans-48"/>
       <use x="736.767578" xlink:href="#DejaVuSans-49"/>
       <use x="800.390625" xlink:href="#DejaVuSans-48"/>
       <use x="864.013672" xlink:href="#DejaVuSans-52"/>
      </g>
     </g>
    </g>
    <g id="xtick_5">
     <g id="line2d_5">
      <g>
       <use style="stroke:#000000;stroke-width:0.8;" x="349.832041" xlink:href="#m5b36c08369" y="563.9575"/>
      </g>
     </g>
     <g id="text_5">
      <!-- KIR3DS1*0130105 -->
      <defs>
       <path d="M 10.796875 72.90625 
L 49.515625 72.90625 
L 49.515625 64.59375 
L 19.828125 64.59375 
L 19.828125 46.734375 
Q 21.96875 47.46875 24.109375 47.828125 
Q 26.265625 48.1875 28.421875 48.1875 
Q 40.625 48.1875 47.75 41.5 
Q 54.890625 34.8125 54.890625 23.390625 
Q 54.890625 11.625 47.5625 5.09375 
Q 40.234375 -1.421875 26.90625 -1.421875 
Q 22.3125 -1.421875 17.546875 -0.640625 
Q 12.796875 0.140625 7.71875 1.703125 
L 7.71875 11.625 
Q 12.109375 9.234375 16.796875 8.0625 
Q 21.484375 6.890625 26.703125 6.890625 
Q 35.15625 6.890625 40.078125 11.328125 
Q 45.015625 15.765625 45.015625 23.390625 
Q 45.015625 31 40.078125 35.4375 
Q 35.15625 39.890625 26.703125 39.890625 
Q 22.75 39.890625 18.8125 39.015625 
Q 14.890625 38.140625 10.796875 36.28125 
z
" id="DejaVuSans-53"/>
      </defs>
      <g transform="translate(352.591416 663.724687)rotate(-90)scale(0.1 -0.1)">
       <use xlink:href="#DejaVuSans-75"/>
       <use x="65.576172" xlink:href="#DejaVuSans-73"/>
       <use x="95.068359" xlink:href="#DejaVuSans-82"/>
       <use x="164.550781" xlink:href="#DejaVuSans-51"/>
       <use x="228.173828" xlink:href="#DejaVuSans-68"/>
       <use x="305.175781" xlink:href="#DejaVuSans-83"/>
       <use x="368.652344" xlink:href="#DejaVuSans-49"/>
       <use x="432.275391" xlink:href="#DejaVuSans-42"/>
       <use x="482.275391" xlink:href="#DejaVuSans-48"/>
       <use x="545.898438" xlink:href="#DejaVuSans-49"/>
       <use x="609.521484" xlink:href="#DejaVuSans-51"/>
       <use x="673.144531" xlink:href="#DejaVuSans-48"/>
       <use x="736.767578" xlink:href="#DejaVuSans-49"/>
       <use x="800.390625" xlink:href="#DejaVuSans-48"/>
       <use x="864.013672" xlink:href="#DejaVuSans-53"/>
      </g>
     </g>
    </g>
    <g id="xtick_6">
     <g id="line2d_6">
      <g>
       <use style="stroke:#000000;stroke-width:0.8;" x="406.852024" xlink:href="#m5b36c08369" y="563.9575"/>
      </g>
     </g>
     <g id="text_6">
      <!-- KIR3DS1*0130106 -->
      <defs>
       <path d="M 33.015625 40.375 
Q 26.375 40.375 22.484375 35.828125 
Q 18.609375 31.296875 18.609375 23.390625 
Q 18.609375 15.53125 22.484375 10.953125 
Q 26.375 6.390625 33.015625 6.390625 
Q 39.65625 6.390625 43.53125 10.953125 
Q 47.40625 15.53125 47.40625 23.390625 
Q 47.40625 31.296875 43.53125 35.828125 
Q 39.65625 40.375 33.015625 40.375 
z
M 52.59375 71.296875 
L 52.59375 62.3125 
Q 48.875 64.0625 45.09375 64.984375 
Q 41.3125 65.921875 37.59375 65.921875 
Q 27.828125 65.921875 22.671875 59.328125 
Q 17.53125 52.734375 16.796875 39.40625 
Q 19.671875 43.65625 24.015625 45.921875 
Q 28.375 48.1875 33.59375 48.1875 
Q 44.578125 48.1875 50.953125 41.515625 
Q 57.328125 34.859375 57.328125 23.390625 
Q 57.328125 12.15625 50.6875 5.359375 
Q 44.046875 -1.421875 33.015625 -1.421875 
Q 20.359375 -1.421875 13.671875 8.265625 
Q 6.984375 17.96875 6.984375 36.375 
Q 6.984375 53.65625 15.1875 63.9375 
Q 23.390625 74.21875 37.203125 74.21875 
Q 40.921875 74.21875 44.703125 73.484375 
Q 48.484375 72.75 52.59375 71.296875 
z
" id="DejaVuSans-54"/>
      </defs>
      <g transform="translate(409.611399 663.724687)rotate(-90)scale(0.1 -0.1)">
       <use xlink:href="#DejaVuSans-75"/>
       <use x="65.576172" xlink:href="#DejaVuSans-73"/>
       <use x="95.068359" xlink:href="#DejaVuSans-82"/>
       <use x="164.550781" xlink:href="#DejaVuSans-51"/>
       <use x="228.173828" xlink:href="#DejaVuSans-68"/>
       <use x="305.175781" xlink:href="#DejaVuSans-83"/>
       <use x="368.652344" xlink:href="#DejaVuSans-49"/>
       <use x="432.275391" xlink:href="#DejaVuSans-42"/>
       <use x="482.275391" xlink:href="#DejaVuSans-48"/>
       <use x="545.898438" xlink:href="#DejaVuSans-49"/>
       <use x="609.521484" xlink:href="#DejaVuSans-51"/>
       <use x="673.144531" xlink:href="#DejaVuSans-48"/>
       <use x="736.767578" xlink:href="#DejaVuSans-49"/>
       <use x="800.390625" xlink:href="#DejaVuSans-48"/>
       <use x="864.013672" xlink:href="#DejaVuSans-54"/>
      </g>
     </g>
    </g>
    <g id="xtick_7">
     <g id="line2d_7">
      <g>
       <use style="stroke:#000000;stroke-width:0.8;" x="463.872008" xlink:href="#m5b36c08369" y="563.9575"/>
      </g>
     </g>
     <g id="text_7">
      <!-- KIR3DS1*0130107 -->
      <defs>
       <path d="M 8.203125 72.90625 
L 55.078125 72.90625 
L 55.078125 68.703125 
L 28.609375 0 
L 18.3125 0 
L 43.21875 64.59375 
L 8.203125 64.59375 
z
" id="DejaVuSans-55"/>
      </defs>
      <g transform="translate(466.631383 663.724687)rotate(-90)scale(0.1 -0.1)">
       <use xlink:href="#DejaVuSans-75"/>
       <use x="65.576172" xlink:href="#DejaVuSans-73"/>
       <use x="95.068359" xlink:href="#DejaVuSans-82"/>
       <use x="164.550781" xlink:href="#DejaVuSans-51"/>
       <use x="228.173828" xlink:href="#DejaVuSans-68"/>
       <use x="305.175781" xlink:href="#DejaVuSans-83"/>
       <use x="368.652344" xlink:href="#DejaVuSans-49"/>
       <use x="432.275391" xlink:href="#DejaVuSans-42"/>
       <use x="482.275391" xlink:href="#DejaVuSans-48"/>
       <use x="545.898438" xlink:href="#DejaVuSans-49"/>
       <use x="609.521484" xlink:href="#DejaVuSans-51"/>
       <use x="673.144531" xlink:href="#DejaVuSans-48"/>
       <use x="736.767578" xlink:href="#DejaVuSans-49"/>
       <use x="800.390625" xlink:href="#DejaVuSans-48"/>
       <use x="864.013672" xlink:href="#DejaVuSans-55"/>
      </g>
     </g>
    </g>
    <g id="xtick_8">
     <g id="line2d_8">
      <g>
       <use style="stroke:#000000;stroke-width:0.8;" x="520.891992" xlink:href="#m5b36c08369" y="563.9575"/>
      </g>
     </g>
     <g id="text_8">
      <!-- KIR3DS1*0130108 -->
      <defs>
       <path d="M 31.78125 34.625 
Q 24.75 34.625 20.71875 30.859375 
Q 16.703125 27.09375 16.703125 20.515625 
Q 16.703125 13.921875 20.71875 10.15625 
Q 24.75 6.390625 31.78125 6.390625 
Q 38.8125 6.390625 42.859375 10.171875 
Q 46.921875 13.96875 46.921875 20.515625 
Q 46.921875 27.09375 42.890625 30.859375 
Q 38.875 34.625 31.78125 34.625 
z
M 21.921875 38.8125 
Q 15.578125 40.375 12.03125 44.71875 
Q 8.5 49.078125 8.5 55.328125 
Q 8.5 64.0625 14.71875 69.140625 
Q 20.953125 74.21875 31.78125 74.21875 
Q 42.671875 74.21875 48.875 69.140625 
Q 55.078125 64.0625 55.078125 55.328125 
Q 55.078125 49.078125 51.53125 44.71875 
Q 48 40.375 41.703125 38.8125 
Q 48.828125 37.15625 52.796875 32.3125 
Q 56.78125 27.484375 56.78125 20.515625 
Q 56.78125 9.90625 50.3125 4.234375 
Q 43.84375 -1.421875 31.78125 -1.421875 
Q 19.734375 -1.421875 13.25 4.234375 
Q 6.78125 9.90625 6.78125 20.515625 
Q 6.78125 27.484375 10.78125 32.3125 
Q 14.796875 37.15625 21.921875 38.8125 
z
M 18.3125 54.390625 
Q 18.3125 48.734375 21.84375 45.5625 
Q 25.390625 42.390625 31.78125 42.390625 
Q 38.140625 42.390625 41.71875 45.5625 
Q 45.3125 48.734375 45.3125 54.390625 
Q 45.3125 60.0625 41.71875 63.234375 
Q 38.140625 66.40625 31.78125 66.40625 
Q 25.390625 66.40625 21.84375 63.234375 
Q 18.3125 60.0625 18.3125 54.390625 
z
" id="DejaVuSans-56"/>
      </defs>
      <g transform="translate(523.651367 663.724687)rotate(-90)scale(0.1 -0.1)">
       <use xlink:href="#DejaVuSans-75"/>
       <use x="65.576172" xlink:href="#DejaVuSans-73"/>
       <use x="95.068359" xlink:href="#DejaVuSans-82"/>
       <use x="164.550781" xlink:href="#DejaVuSans-51"/>
       <use x="228.173828" xlink:href="#DejaVuSans-68"/>
       <use x="305.175781" xlink:href="#DejaVuSans-83"/>
       <use x="368.652344" xlink:href="#DejaVuSans-49"/>
       <use x="432.275391" xlink:href="#DejaVuSans-42"/>
       <use x="482.275391" xlink:href="#DejaVuSans-48"/>
       <use x="545.898438" xlink:href="#DejaVuSans-49"/>
       <use x="609.521484" xlink:href="#DejaVuSans-51"/>
       <use x="673.144531" xlink:href="#DejaVuSans-48"/>
       <use x="736.767578" xlink:href="#DejaVuSans-49"/>
       <use x="800.390625" xlink:href="#DejaVuSans-48"/>
       <use x="864.013672" xlink:href="#DejaVuSans-56"/>
      </g>
     </g>
    </g>
    <g id="xtick_9">
     <g id="line2d_9">
      <g>
       <use style="stroke:#000000;stroke-width:0.8;" x="577.911976" xlink:href="#m5b36c08369" y="563.9575"/>
      </g>
     </g>
     <g id="text_9">
      <!-- KIR3DS1*0130109 -->
      <defs>
       <path d="M 10.984375 1.515625 
L 10.984375 10.5 
Q 14.703125 8.734375 18.5 7.8125 
Q 22.3125 6.890625 25.984375 6.890625 
Q 35.75 6.890625 40.890625 13.453125 
Q 46.046875 20.015625 46.78125 33.40625 
Q 43.953125 29.203125 39.59375 26.953125 
Q 35.25 24.703125 29.984375 24.703125 
Q 19.046875 24.703125 12.671875 31.3125 
Q 6.296875 37.9375 6.296875 49.421875 
Q 6.296875 60.640625 12.9375 67.421875 
Q 19.578125 74.21875 30.609375 74.21875 
Q 43.265625 74.21875 49.921875 64.515625 
Q 56.59375 54.828125 56.59375 36.375 
Q 56.59375 19.140625 48.40625 8.859375 
Q 40.234375 -1.421875 26.421875 -1.421875 
Q 22.703125 -1.421875 18.890625 -0.6875 
Q 15.09375 0.046875 10.984375 1.515625 
z
M 30.609375 32.421875 
Q 37.25 32.421875 41.125 36.953125 
Q 45.015625 41.5 45.015625 49.421875 
Q 45.015625 57.28125 41.125 61.84375 
Q 37.25 66.40625 30.609375 66.40625 
Q 23.96875 66.40625 20.09375 61.84375 
Q 16.21875 57.28125 16.21875 49.421875 
Q 16.21875 41.5 20.09375 36.953125 
Q 23.96875 32.421875 30.609375 32.421875 
z
" id="DejaVuSans-57"/>
      </defs>
      <g transform="translate(580.671351 663.724687)rotate(-90)scale(0.1 -0.1)">
       <use xlink:href="#DejaVuSans-75"/>
       <use x="65.576172" xlink:href="#DejaVuSans-73"/>
       <use x="95.068359" xlink:href="#DejaVuSans-82"/>
       <use x="164.550781" xlink:href="#DejaVuSans-51"/>
       <use x="228.173828" xlink:href="#DejaVuSans-68"/>
       <use x="305.175781" xlink:href="#DejaVuSans-83"/>
       <use x="368.652344" xlink:href="#DejaVuSans-49"/>
       <use x="432.275391" xlink:href="#DejaVuSans-42"/>
       <use x="482.275391" xlink:href="#DejaVuSans-48"/>
       <use x="545.898438" xlink:href="#DejaVuSans-49"/>
       <use x="609.521484" xlink:href="#DejaVuSans-51"/>
       <use x="673.144531" xlink:href="#DejaVuSans-48"/>
       <use x="736.767578" xlink:href="#DejaVuSans-49"/>
       <use x="800.390625" xlink:href="#DejaVuSans-48"/>
       <use x="864.013672" xlink:href="#DejaVuSans-57"/>
      </g>
     </g>
    </g>
    <g id="xtick_10">
     <g id="line2d_10">
      <g>
       <use style="stroke:#000000;stroke-width:0.8;" x="634.931959" xlink:href="#m5b36c08369" y="563.9575"/>
      </g>
     </g>
     <g id="text_10">
      <!-- KIR3DS1*0130110 -->
      <g transform="translate(637.691334 663.724687)rotate(-90)scale(0.1 -0.1)">
       <use xlink:href="#DejaVuSans-75"/>
       <use x="65.576172" xlink:href="#DejaVuSans-73"/>
       <use x="95.068359" xlink:href="#DejaVuSans-82"/>
       <use x="164.550781" xlink:href="#DejaVuSans-51"/>
       <use x="228.173828" xlink:href="#DejaVuSans-68"/>
       <use x="305.175781" xlink:href="#DejaVuSans-83"/>
       <use x="368.652344" xlink:href="#DejaVuSans-49"/>
       <use x="432.275391" xlink:href="#DejaVuSans-42"/>
       <use x="482.275391" xlink:href="#DejaVuSans-48"/>
       <use x="545.898438" xlink:href="#DejaVuSans-49"/>
       <use x="609.521484" xlink:href="#DejaVuSans-51"/>
       <use x="673.144531" xlink:href="#DejaVuSans-48"/>
       <use x="736.767578" xlink:href="#DejaVuSans-49"/>
       <use x="800.390625" xlink:href="#DejaVuSans-49"/>
       <use x="864.013672" xlink:href="#DejaVuSans-48"/>
      </g>
     </g>
    </g>
    <g id="xtick_11">
     <g id="line2d_11">
      <g>
       <use style="stroke:#000000;stroke-width:0.8;" x="691.951943" xlink:href="#m5b36c08369" y="563.9575"/>
      </g>
     </g>
     <g id="text_11">
      <!-- KIR3DS1*0130111 -->
      <g transform="translate(694.711318 663.724687)rotate(-90)scale(0.1 -0.1)">
       <use xlink:href="#DejaVuSans-75"/>
       <use x="65.576172" xlink:href="#DejaVuSans-73"/>
       <use x="95.068359" xlink:href="#DejaVuSans-82"/>
       <use x="164.550781" xlink:href="#DejaVuSans-51"/>
       <use x="228.173828" xlink:href="#DejaVuSans-68"/>
       <use x="305.175781" xlink:href="#DejaVuSans-83"/>
       <use x="368.652344" xlink:href="#DejaVuSans-49"/>
       <use x="432.275391" xlink:href="#DejaVuSans-42"/>
       <use x="482.275391" xlink:href="#DejaVuSans-48"/>
       <use x="545.898438" xlink:href="#DejaVuSans-49"/>
       <use x="609.521484" xlink:href="#DejaVuSans-51"/>
       <use x="673.144531" xlink:href="#DejaVuSans-48"/>
       <use x="736.767578" xlink:href="#DejaVuSans-49"/>
       <use x="800.390625" xlink:href="#DejaVuSans-49"/>
       <use x="864.013672" xlink:href="#DejaVuSans-49"/>
      </g>
     </g>
    </g>
    <g id="xtick_12">
     <g id="line2d_12">
      <g>
       <use style="stroke:#000000;stroke-width:0.8;" x="748.971927" xlink:href="#m5b36c08369" y="563.9575"/>
      </g>
     </g>
     <g id="text_12">
      <!-- KIR3DS1*014 -->
      <g transform="translate(751.731302 638.274687)rotate(-90)scale(0.1 -0.1)">
       <use xlink:href="#DejaVuSans-75"/>
       <use x="65.576172" xlink:href="#DejaVuSans-73"/>
       <use x="95.068359" xlink:href="#DejaVuSans-82"/>
       <use x="164.550781" xlink:href="#DejaVuSans-51"/>
       <use x="228.173828" xlink:href="#DejaVuSans-68"/>
       <use x="305.175781" xlink:href="#DejaVuSans-83"/>
       <use x="368.652344" xlink:href="#DejaVuSans-49"/>
       <use x="432.275391" xlink:href="#DejaVuSans-42"/>
       <use x="482.275391" xlink:href="#DejaVuSans-48"/>
       <use x="545.898438" xlink:href="#DejaVuSans-49"/>
       <use x="609.521484" xlink:href="#DejaVuSans-52"/>
      </g>
     </g>
    </g>
    <g id="xtick_13">
     <g id="line2d_13">
      <g>
       <use style="stroke:#000000;stroke-width:0.8;" x="805.991911" xlink:href="#m5b36c08369" y="563.9575"/>
      </g>
     </g>
     <g id="text_13">
      <!-- KIR3DS1*055 -->
      <g transform="translate(808.751286 638.274687)rotate(-90)scale(0.1 -0.1)">
       <use xlink:href="#DejaVuSans-75"/>
       <use x="65.576172" xlink:href="#DejaVuSans-73"/>
       <use x="95.068359" xlink:href="#DejaVuSans-82"/>
       <use x="164.550781" xlink:href="#DejaVuSans-51"/>
       <use x="228.173828" xlink:href="#DejaVuSans-68"/>
       <use x="305.175781" xlink:href="#DejaVuSans-83"/>
       <use x="368.652344" xlink:href="#DejaVuSans-49"/>
       <use x="432.275391" xlink:href="#DejaVuSans-42"/>
       <use x="482.275391" xlink:href="#DejaVuSans-48"/>
       <use x="545.898438" xlink:href="#DejaVuSans-53"/>
       <use x="609.521484" xlink:href="#DejaVuSans-53"/>
      </g>
     </g>
    </g>
    <g id="xtick_14">
     <g id="line2d_14">
      <g>
       <use style="stroke:#000000;stroke-width:0.8;" x="863.011894" xlink:href="#m5b36c08369" y="563.9575"/>
      </g>
     </g>
     <g id="text_14">
      <!-- KIR3DS1*078 -->
      <g transform="translate(865.771269 638.274687)rotate(-90)scale(0.1 -0.1)">
       <use xlink:href="#DejaVuSans-75"/>
       <use x="65.576172" xlink:href="#DejaVuSans-73"/>
       <use x="95.068359" xlink:href="#DejaVuSans-82"/>
       <use x="164.550781" xlink:href="#DejaVuSans-51"/>
       <use x="228.173828" xlink:href="#DejaVuSans-68"/>
       <use x="305.175781" xlink:href="#DejaVuSans-83"/>
       <use x="368.652344" xlink:href="#DejaVuSans-49"/>
       <use x="432.275391" xlink:href="#DejaVuSans-42"/>
       <use x="482.275391" xlink:href="#DejaVuSans-48"/>
       <use x="545.898438" xlink:href="#DejaVuSans-55"/>
       <use x="609.521484" xlink:href="#DejaVuSans-56"/>
      </g>
     </g>
    </g>
    <g id="text_15">
     <!-- Gen -->
     <defs>
      <path d="M 74.703125 5.421875 
Q 67.671875 2 60.109375 0.28125 
Q 52.546875 -1.421875 44.484375 -1.421875 
Q 26.265625 -1.421875 15.625 8.765625 
Q 4.984375 18.953125 4.984375 36.375 
Q 4.984375 54 15.8125 64.109375 
Q 26.65625 74.21875 45.515625 74.21875 
Q 52.78125 74.21875 59.4375 72.84375 
Q 66.109375 71.484375 72.015625 68.796875 
L 72.015625 53.71875 
Q 65.921875 57.171875 59.890625 58.875 
Q 53.859375 60.59375 47.796875 60.59375 
Q 36.578125 60.59375 30.5 54.3125 
Q 24.421875 48.046875 24.421875 36.375 
Q 24.421875 24.8125 30.28125 18.5 
Q 36.140625 12.203125 46.921875 12.203125 
Q 49.859375 12.203125 52.375 12.5625 
Q 54.890625 12.9375 56.890625 13.71875 
L 56.890625 27.875 
L 45.40625 27.875 
L 45.40625 40.484375 
L 74.703125 40.484375 
z
" id="DejaVuSans-Bold-71"/>
      <path d="M 62.984375 27.484375 
L 62.984375 22.515625 
L 22.125 22.515625 
Q 22.75 16.359375 26.5625 13.28125 
Q 30.375 10.203125 37.203125 10.203125 
Q 42.71875 10.203125 48.5 11.84375 
Q 54.296875 13.484375 60.40625 16.796875 
L 60.40625 3.328125 
Q 54.203125 0.984375 48 -0.21875 
Q 41.796875 -1.421875 35.59375 -1.421875 
Q 20.75 -1.421875 12.515625 6.125 
Q 4.296875 13.671875 4.296875 27.296875 
Q 4.296875 40.671875 12.375 48.328125 
Q 20.453125 56 34.625 56 
Q 47.515625 56 55.25 48.234375 
Q 62.984375 40.484375 62.984375 27.484375 
z
M 45.015625 33.296875 
Q 45.015625 38.28125 42.109375 41.328125 
Q 39.203125 44.390625 34.515625 44.390625 
Q 29.4375 44.390625 26.265625 41.53125 
Q 23.09375 38.671875 22.3125 33.296875 
z
" id="DejaVuSans-Bold-101"/>
      <path d="M 63.375 33.296875 
L 63.375 0 
L 45.796875 0 
L 45.796875 5.421875 
L 45.796875 25.484375 
Q 45.796875 32.5625 45.484375 35.25 
Q 45.171875 37.9375 44.390625 39.203125 
Q 43.359375 40.921875 41.59375 41.875 
Q 39.84375 42.828125 37.59375 42.828125 
Q 32.125 42.828125 29 38.59375 
Q 25.875 34.375 25.875 26.90625 
L 25.875 0 
L 8.40625 0 
L 8.40625 54.6875 
L 25.875 54.6875 
L 25.875 46.6875 
Q 29.828125 51.46875 34.265625 53.734375 
Q 38.71875 56 44.09375 56 
Q 53.5625 56 58.46875 50.1875 
Q 63.375 44.390625 63.375 33.296875 
z
" id="DejaVuSans-Bold-110"/>
     </defs>
     <g transform="translate(481.327312 675.323125)scale(0.1 -0.1)">
      <use xlink:href="#DejaVuSans-Bold-71"/>
      <use x="82.080078" xlink:href="#DejaVuSans-Bold-101"/>
      <use x="149.902344" xlink:href="#DejaVuSans-Bold-110"/>
     </g>
    </g>
   </g>
   <g id="matplotlib.axis_2">
    <g id="ytick_1">
     <g id="line2d_15">
      <defs>
       <path d="M 0 0 
L -3.5 0 
" id="m5a04a3a2d8" style="stroke:#000000;stroke-width:0.8;"/>
      </defs>
      <g>
       <use style="stroke:#000000;stroke-width:0.8;" x="53.328125" xlink:href="#m5a04a3a2d8" y="563.9575"/>
      </g>
     </g>
     <g id="text_16">
      <!-- 0 -->
      <g transform="translate(39.965625 567.756719)scale(0.1 -0.1)">
       <use xlink:href="#DejaVuSans-48"/>
      </g>
     </g>
    </g>
    <g id="ytick_2">
     <g id="line2d_16">
      <g>
       <use style="stroke:#000000;stroke-width:0.8;" x="53.328125" xlink:href="#m5a04a3a2d8" y="451.670381"/>
      </g>
     </g>
     <g id="text_17">
      <!-- 2000 -->
      <g transform="translate(20.878125 455.4696)scale(0.1 -0.1)">
       <use xlink:href="#DejaVuSans-50"/>
       <use x="63.623047" xlink:href="#DejaVuSans-48"/>
       <use x="127.246094" xlink:href="#DejaVuSans-48"/>
       <use x="190.869141" xlink:href="#DejaVuSans-48"/>
      </g>
     </g>
    </g>
    <g id="ytick_3">
     <g id="line2d_17">
      <g>
       <use style="stroke:#000000;stroke-width:0.8;" x="53.328125" xlink:href="#m5a04a3a2d8" y="339.383262"/>
      </g>
     </g>
     <g id="text_18">
      <!-- 4000 -->
      <g transform="translate(20.878125 343.182481)scale(0.1 -0.1)">
       <use xlink:href="#DejaVuSans-52"/>
       <use x="63.623047" xlink:href="#DejaVuSans-48"/>
       <use x="127.246094" xlink:href="#DejaVuSans-48"/>
       <use x="190.869141" xlink:href="#DejaVuSans-48"/>
      </g>
     </g>
    </g>
    <g id="ytick_4">
     <g id="line2d_18">
      <g>
       <use style="stroke:#000000;stroke-width:0.8;" x="53.328125" xlink:href="#m5a04a3a2d8" y="227.096144"/>
      </g>
     </g>
     <g id="text_19">
      <!-- 6000 -->
      <g transform="translate(20.878125 230.895362)scale(0.1 -0.1)">
       <use xlink:href="#DejaVuSans-54"/>
       <use x="63.623047" xlink:href="#DejaVuSans-48"/>
       <use x="127.246094" xlink:href="#DejaVuSans-48"/>
       <use x="190.869141" xlink:href="#DejaVuSans-48"/>
      </g>
     </g>
    </g>
    <g id="ytick_5">
     <g id="line2d_19">
      <g>
       <use style="stroke:#000000;stroke-width:0.8;" x="53.328125" xlink:href="#m5a04a3a2d8" y="114.809025"/>
      </g>
     </g>
     <g id="text_20">
      <!-- 8000 -->
      <g transform="translate(20.878125 118.608244)scale(0.1 -0.1)">
       <use xlink:href="#DejaVuSans-56"/>
       <use x="63.623047" xlink:href="#DejaVuSans-48"/>
       <use x="127.246094" xlink:href="#DejaVuSans-48"/>
       <use x="190.869141" xlink:href="#DejaVuSans-48"/>
      </g>
     </g>
    </g>
    <g id="text_21">
     <!-- Vzdálenost -->
     <defs>
      <path d="M 0.484375 72.90625 
L 19.390625 72.90625 
L 38.71875 19.09375 
L 58.015625 72.90625 
L 76.90625 72.90625 
L 49.90625 0 
L 27.484375 0 
z
" id="DejaVuSans-Bold-86"/>
      <path d="M 5.71875 54.6875 
L 53.421875 54.6875 
L 53.421875 42.484375 
L 24.609375 12.5 
L 53.421875 12.5 
L 53.421875 0 
L 4.5 0 
L 4.5 12.203125 
L 33.296875 42.1875 
L 5.71875 42.1875 
z
" id="DejaVuSans-Bold-122"/>
      <path d="M 45.609375 46.6875 
L 45.609375 75.984375 
L 63.1875 75.984375 
L 63.1875 0 
L 45.609375 0 
L 45.609375 7.90625 
Q 42 3.078125 37.640625 0.828125 
Q 33.296875 -1.421875 27.59375 -1.421875 
Q 17.484375 -1.421875 10.984375 6.609375 
Q 4.5 14.65625 4.5 27.296875 
Q 4.5 39.9375 10.984375 47.96875 
Q 17.484375 56 27.59375 56 
Q 33.25 56 37.625 53.734375 
Q 42 51.46875 45.609375 46.6875 
z
M 34.078125 11.28125 
Q 39.703125 11.28125 42.65625 15.375 
Q 45.609375 19.484375 45.609375 27.296875 
Q 45.609375 35.109375 42.65625 39.203125 
Q 39.703125 43.3125 34.078125 43.3125 
Q 28.515625 43.3125 25.5625 39.203125 
Q 22.609375 35.109375 22.609375 27.296875 
Q 22.609375 19.484375 25.5625 15.375 
Q 28.515625 11.28125 34.078125 11.28125 
z
" id="DejaVuSans-Bold-100"/>
      <path d="M 32.90625 24.609375 
Q 27.4375 24.609375 24.671875 22.75 
Q 21.921875 20.90625 21.921875 17.28125 
Q 21.921875 13.96875 24.140625 12.078125 
Q 26.375 10.203125 30.328125 10.203125 
Q 35.25 10.203125 38.625 13.734375 
Q 42 17.28125 42 22.609375 
L 42 24.609375 
z
M 59.625 31.203125 
L 59.625 0 
L 42 0 
L 42 8.109375 
Q 38.484375 3.125 34.078125 0.84375 
Q 29.6875 -1.421875 23.390625 -1.421875 
Q 14.890625 -1.421875 9.59375 3.53125 
Q 4.296875 8.5 4.296875 16.40625 
Q 4.296875 26.03125 10.90625 30.515625 
Q 17.53125 35.015625 31.6875 35.015625 
L 42 35.015625 
L 42 36.375 
Q 42 40.53125 38.71875 42.453125 
Q 35.453125 44.390625 28.515625 44.390625 
Q 22.90625 44.390625 18.0625 43.265625 
Q 13.234375 42.140625 9.078125 39.890625 
L 9.078125 53.21875 
Q 14.703125 54.59375 20.359375 55.296875 
Q 26.03125 56 31.6875 56 
Q 46.484375 56 53.046875 50.171875 
Q 59.625 44.34375 59.625 31.203125 
z
M 40.71875 79.984375 
L 54.53125 79.984375 
L 36.515625 61.625 
L 26.953125 61.625 
z
" id="DejaVuSans-Bold-225"/>
      <path d="M 8.40625 75.984375 
L 25.875 75.984375 
L 25.875 0 
L 8.40625 0 
z
" id="DejaVuSans-Bold-108"/>
      <path d="M 34.421875 43.5 
Q 28.609375 43.5 25.5625 39.328125 
Q 22.515625 35.15625 22.515625 27.296875 
Q 22.515625 19.4375 25.5625 15.25 
Q 28.609375 11.078125 34.421875 11.078125 
Q 40.140625 11.078125 43.15625 15.25 
Q 46.1875 19.4375 46.1875 27.296875 
Q 46.1875 35.15625 43.15625 39.328125 
Q 40.140625 43.5 34.421875 43.5 
z
M 34.421875 56 
Q 48.53125 56 56.46875 48.375 
Q 64.40625 40.765625 64.40625 27.296875 
Q 64.40625 13.8125 56.46875 6.1875 
Q 48.53125 -1.421875 34.421875 -1.421875 
Q 20.265625 -1.421875 12.28125 6.1875 
Q 4.296875 13.8125 4.296875 27.296875 
Q 4.296875 40.765625 12.28125 48.375 
Q 20.265625 56 34.421875 56 
z
" id="DejaVuSans-Bold-111"/>
      <path d="M 51.125 52.984375 
L 51.125 39.703125 
Q 45.515625 42.046875 40.28125 43.21875 
Q 35.0625 44.390625 30.421875 44.390625 
Q 25.4375 44.390625 23.015625 43.140625 
Q 20.609375 41.890625 20.609375 39.3125 
Q 20.609375 37.203125 22.4375 36.078125 
Q 24.265625 34.96875 29 34.421875 
L 32.078125 33.984375 
Q 45.515625 32.28125 50.140625 28.375 
Q 54.78125 24.46875 54.78125 16.109375 
Q 54.78125 7.375 48.328125 2.96875 
Q 41.890625 -1.421875 29.109375 -1.421875 
Q 23.6875 -1.421875 17.890625 -0.5625 
Q 12.109375 0.296875 6 2 
L 6 15.28125 
Q 11.234375 12.75 16.71875 11.46875 
Q 22.21875 10.203125 27.875 10.203125 
Q 33.015625 10.203125 35.59375 11.609375 
Q 38.1875 13.03125 38.1875 15.828125 
Q 38.1875 18.171875 36.40625 19.3125 
Q 34.625 20.453125 29.296875 21.09375 
L 26.21875 21.484375 
Q 14.546875 22.953125 9.859375 26.90625 
Q 5.171875 30.859375 5.171875 38.921875 
Q 5.171875 47.609375 11.125 51.796875 
Q 17.09375 56 29.390625 56 
Q 34.234375 56 39.546875 55.265625 
Q 44.875 54.546875 51.125 52.984375 
z
" id="DejaVuSans-Bold-115"/>
      <path d="M 27.484375 70.21875 
L 27.484375 54.6875 
L 45.515625 54.6875 
L 45.515625 42.1875 
L 27.484375 42.1875 
L 27.484375 19 
Q 27.484375 15.1875 29 13.84375 
Q 30.515625 12.5 35.015625 12.5 
L 44 12.5 
L 44 0 
L 29 0 
Q 18.65625 0 14.328125 4.3125 
Q 10.015625 8.640625 10.015625 19 
L 10.015625 42.1875 
L 1.3125 42.1875 
L 1.3125 54.6875 
L 10.015625 54.6875 
L 10.015625 70.21875 
z
" id="DejaVuSans-Bold-116"/>
     </defs>
     <g transform="translate(14.798438 324.33625)rotate(-90)scale(0.1 -0.1)">
      <use xlink:href="#DejaVuSans-Bold-86"/>
      <use x="77.392578" xlink:href="#DejaVuSans-Bold-122"/>
      <use x="135.595703" xlink:href="#DejaVuSans-Bold-100"/>
      <use x="207.177734" xlink:href="#DejaVuSans-Bold-225"/>
      <use x="274.658203" xlink:href="#DejaVuSans-Bold-108"/>
      <use x="308.935547" xlink:href="#DejaVuSans-Bold-101"/>
      <use x="376.757812" xlink:href="#DejaVuSans-Bold-110"/>
      <use x="447.949219" xlink:href="#DejaVuSans-Bold-111"/>
      <use x="516.650391" xlink:href="#DejaVuSans-Bold-115"/>
      <use x="576.171875" xlink:href="#DejaVuSans-Bold-116"/>
     </g>
    </g>
   </g>
   <g id="patch_17">
    <path d="M 53.328125 563.9575 
L 53.328125 22.318125 
" style="fill:none;stroke:#000000;stroke-linecap:square;stroke-linejoin:miter;stroke-width:0.8;"/>
   </g>
   <g id="patch_18">
    <path d="M 931.435875 563.9575 
L 931.435875 22.318125 
" style="fill:none;stroke:#000000;stroke-linecap:square;stroke-linejoin:miter;stroke-width:0.8;"/>
   </g>
   <g id="patch_19">
    <path d="M 53.328125 563.9575 
L 931.435875 563.9575 
" style="fill:none;stroke:#000000;stroke-linecap:square;stroke-linejoin:miter;stroke-width:0.8;"/>
   </g>
   <g id="patch_20">
    <path d="M 53.328125 22.318125 
L 931.435875 22.318125 
" style="fill:none;stroke:#000000;stroke-linecap:square;stroke-linejoin:miter;stroke-width:0.8;"/>
   </g>
   <g id="text_22">
    <!-- KIR3DS1*0130101 -->
    <g transform="translate(436.721687 16.318125)scale(0.12 -0.12)">
     <use xlink:href="#DejaVuSans-75"/>
     <use x="65.576172" xlink:href="#DejaVuSans-73"/>
     <use x="95.068359" xlink:href="#DejaVuSans-82"/>
     <use x="164.550781" xlink:href="#DejaVuSans-51"/>
     <use x="228.173828" xlink:href="#DejaVuSans-68"/>
     <use x="305.175781" xlink:href="#DejaVuSans-83"/>
     <use x="368.652344" xlink:href="#DejaVuSans-49"/>
     <use x="432.275391" xlink:href="#DejaVuSans-42"/>
     <use x="482.275391" xlink:href="#DejaVuSans-48"/>
     <use x="545.898438" xlink:href="#DejaVuSans-49"/>
     <use x="609.521484" xlink:href="#DejaVuSans-51"/>
     <use x="673.144531" xlink:href="#DejaVuSans-48"/>
     <use x="736.767578" xlink:href="#DejaVuSans-49"/>
     <use x="800.390625" xlink:href="#DejaVuSans-48"/>
     <use x="864.013672" xlink:href="#DejaVuSans-49"/>
    </g>
   </g>
  </g>
 </g>
 <defs>
  <clipPath id="peaa1e6db7b">
   <rect height="541.639375" width="878.10775" x="53.328125" y="22.318125"/>
  </clipPath>
 </defs>
</svg>
